<?xml version="1.0" encoding="UTF-8"?>
<svg id="Layer_1" data-name="Layer 1" xmlns="http://www.w3.org/2000/svg" viewBox="0 0 321.4076011499 400.2000045776">
  <path d="M100,400h175.2000045776c2.9999923706,0,5.9999847412-1.3999938965,7.799987793-3.8000106812l38.4076087793-46.1999893188H144.7999954224c-2.9999923706,0-6.0000038147,1.3999938965-7.799987793,3.8000106812l-37.0000076294,46.1999893188Z" style="fill: #aaa4ec;"/>
  <path d="M80,240v57.9999923706c0,2.200012207-.7999992371,4.5999908447-2.2000026703,6.3999938965L0,400.2000045776H55.2000045776c2.9999923706,0,5.7999992371-1.3999938965,7.7999973297-3.6000061035l59.000005722-72.5999832153c1.7999839783-2.4000167847,4.7999954224-3.6000061035,7.799987793-3.6000061035h60.2000045776c68.4000015259,0,124.3999862671-52.8000068665,129.3999862671-120h-79.3999862671l77.799987793-94.6710966573c1.3999938965-1.799993515,2.200012207-3.9999961853,2.200012207-6.1999988556V0C187.3999977112,0,80,107.3999977112,80,240h0Z" style="fill: #5548d9;"/>
</svg>